<svg width="188" height="147" viewBox="0 0 188 147" fill="none" xmlns="http://www.w3.org/2000/svg">
<path d="M188 17.4052C181.086 20.3525 173.659 22.3439 165.852 23.2441C173.817 18.6558 179.927 11.3751 182.809 2.70836C175.357 6.96207 167.102 10.0528 158.317 11.7097C151.279 4.50862 141.261 0 130.166 0C108.87 0 91.5989 16.6166 91.5989 37.1204C91.5989 40.0199 91.9466 42.8398 92.5924 45.5641C60.525 44.0108 32.1171 29.2343 13.0903 6.78682C9.77838 12.2832 7.87404 18.6558 7.87404 25.4426C7.87404 38.3153 14.6883 49.6824 25.0297 56.3338C18.704 56.1347 12.7591 54.4698 7.55941 51.6898V52.1677C7.55941 70.1464 20.8484 85.1459 38.5008 88.5553C35.2552 89.3996 31.8522 89.8457 28.3416 89.8457C25.8577 89.8457 23.4317 89.6227 21.0802 89.1925C25.9901 103.929 40.2313 114.667 57.1137 114.954C43.9075 124.911 27.2735 130.845 9.20708 130.845C6.0939 130.845 3.02211 130.67 0 130.328C17.0728 140.866 37.3417 147 59.1174 147C130.075 147 168.865 90.4591 168.865 41.4219C168.865 39.8288 168.824 38.2197 168.75 36.6265C176.284 31.3851 182.825 24.8611 187.983 17.4291L188 17.4052Z" fill="#1C9BF1"/>
<path d="M188 17.4052C181.086 20.3525 173.659 22.3439 165.852 23.2441C173.817 18.6558 179.927 11.3751 182.809 2.70836C175.357 6.96207 167.102 10.0528 158.317 11.7097C151.279 4.50862 141.261 0 130.166 0C108.87 0 91.5989 16.6166 91.5989 37.1204C91.5989 40.0199 91.9466 42.8398 92.5924 45.5641C60.525 44.0108 32.1171 29.2343 13.0903 6.78682C9.77838 12.2832 7.87404 18.6558 7.87404 25.4426C7.87404 38.3153 14.6883 49.6824 25.0297 56.3338C18.704 56.1347 12.7591 54.4698 7.55941 51.6898V52.1677C7.55941 70.1464 20.8484 85.1459 38.5008 88.5553C35.2552 89.3996 31.8522 89.8457 28.3416 89.8457C25.8577 89.8457 23.4317 89.6227 21.0802 89.1925C25.9901 103.929 40.2313 114.667 57.1137 114.954C43.9075 124.911 27.2735 130.845 9.20708 130.845C6.0939 130.845 3.02211 130.67 0 130.328C17.0728 140.866 37.3417 147 59.1174 147C130.075 147 168.865 90.4591 168.865 41.4219C168.865 39.8288 168.824 38.2197 168.75 36.6265C176.284 31.3851 182.825 24.8611 187.983 17.4291L188 17.4052Z" fill="#1C9BF1"/>
<path d="M188 17.4052C181.086 20.3525 173.659 22.3439 165.852 23.2441C173.817 18.6558 179.927 11.3751 182.809 2.70836C175.357 6.96207 167.102 10.0528 158.317 11.7097C151.279 4.50862 141.261 0 130.166 0C108.87 0 91.5989 16.6166 91.5989 37.1204C91.5989 40.0199 91.9466 42.8398 92.5924 45.5641C60.525 44.0108 32.1171 29.2343 13.0903 6.78682C9.77838 12.2832 7.87404 18.6558 7.87404 25.4426C7.87404 38.3153 14.6883 49.6824 25.0297 56.3338C18.704 56.1347 12.7591 54.4698 7.55941 51.6898V52.1677C7.55941 70.1464 20.8484 85.1459 38.5008 88.5553C35.2552 89.3996 31.8522 89.8457 28.3416 89.8457C25.8577 89.8457 23.4317 89.6227 21.0802 89.1925C25.9901 103.929 40.2313 114.667 57.1137 114.954C43.9075 124.911 27.2735 130.845 9.20708 130.845C6.0939 130.845 3.02211 130.67 0 130.328C17.0728 140.866 37.3417 147 59.1174 147C130.075 147 168.865 90.4591 168.865 41.4219C168.865 39.8288 168.824 38.2197 168.75 36.6265C176.284 31.3851 182.825 24.8611 187.983 17.4291L188 17.4052Z" fill="#1C9BF1"/>
</svg>
